<svg width="43" height="32" viewBox="0 0 43 32" fill="none" xmlns="http://www.w3.org/2000/svg">
<path id="Vector" d="M20.1208 24.1924C20.1008 24.2324 20.0808 24.2644 20.1208 24.1924ZM36.7281 18.3929C35.3874 18.3925 34.0645 18.7004 32.8617 19.2928C32.4684 18.4995 32.0618 17.8063 31.9951 17.2863C31.9152 16.6797 31.8285 16.3197 31.9218 15.5998C32.0151 14.8798 32.4351 13.8599 32.4284 13.7866C32.4218 13.7133 32.3351 13.3466 31.4752 13.34C30.6153 13.3333 29.8753 13.5066 29.7893 13.7333C29.6375 14.1475 29.5193 14.5733 29.436 15.0065C29.2827 15.7864 27.7168 18.5729 26.8302 20.0261C26.5369 19.4595 26.2903 18.9595 26.237 18.5595C26.157 17.9529 26.0703 17.5929 26.1636 16.873C26.257 16.1531 26.6769 15.1331 26.6703 15.0598C26.6636 14.9865 26.5769 14.6199 25.7177 14.6132C24.8584 14.6065 24.1178 14.7798 24.0311 15.0065C23.9445 15.2331 23.8511 15.7664 23.6778 16.2797C23.5045 16.793 21.4187 21.4326 20.8727 22.6392C20.5927 23.2525 20.3528 23.7458 20.1794 24.0791C20.1528 24.1324 20.1328 24.1657 20.1195 24.1924C20.1395 24.1591 20.1528 24.1257 20.1528 24.1391C20.0061 24.4257 19.9195 24.5857 19.9195 24.5857V24.5924C19.8061 24.8057 19.6795 24.999 19.6195 24.999C19.5795 24.999 19.4928 24.4391 19.6395 23.6725C19.9528 22.0593 20.6927 19.5528 20.6861 19.4661C20.6794 19.4195 20.8261 18.9862 20.1994 18.7529C19.5928 18.5329 19.3728 18.8995 19.3195 18.8995C19.2662 18.8995 19.2262 19.0328 19.2262 19.0328C19.2262 19.0328 19.8995 16.2064 17.9336 16.2064C16.7071 16.2064 15.0005 17.553 14.1619 18.7729C13.6353 19.0595 12.4954 19.6794 11.2955 20.3394C10.8355 20.5927 10.3622 20.8527 9.91562 21.0993C9.88229 21.066 9.85562 21.0327 9.82229 20.9993C7.43649 18.4529 3.03151 16.653 3.21817 13.2333C3.28483 11.9867 3.71813 8.71367 11.6888 4.74066C18.2216 1.4876 23.4445 2.38086 24.3438 4.36736C25.637 7.20046 21.5513 12.4734 14.7672 13.2333C12.1814 13.5199 10.8222 12.52 10.4822 12.1467C10.1289 11.7534 10.0756 11.7334 9.94228 11.8068C9.7223 11.9267 9.86229 12.2734 9.94228 12.48C10.1423 13.0067 10.9755 13.9399 12.3948 14.4065C13.6413 14.8132 16.6731 15.0398 20.3388 13.6199C24.4571 12.0334 27.6628 7.61376 26.7229 3.91406C25.7657 0.154371 19.5315 -1.07886 13.6366 1.0143C10.1243 2.26087 6.32591 4.22071 3.59347 6.77383C0.347734 9.81358 -0.171557 12.46 0.0417591 13.5666C0.80103 17.493 6.21259 20.0527 8.37841 21.9459C8.27175 22.0059 8.17176 22.0593 8.07844 22.1126C6.99252 22.6525 2.86686 24.8124 1.83428 27.0922C0.667708 29.6786 2.0276 31.5318 2.92019 31.7851C5.70596 32.5584 8.5584 31.1652 10.0909 28.8787C11.6235 26.5922 11.4375 23.6058 10.7309 22.2459C10.7242 22.2259 10.7109 22.2126 10.7042 22.1926C10.9842 22.0259 11.2708 21.8593 11.5575 21.6926C12.1101 21.366 12.6501 21.066 13.1234 20.806C12.8567 21.526 12.6634 22.3926 12.5634 23.6458C12.4434 25.1123 13.05 27.0122 13.8366 27.7588C14.1833 28.0854 14.6026 28.0921 14.8625 28.0921C15.7825 28.0921 16.1958 27.3322 16.6551 26.4256C17.2217 25.319 17.7216 24.0324 17.7216 24.0324C17.7216 24.0324 17.095 27.5121 18.8082 27.5121C19.4342 27.5121 20.0608 26.7055 20.3414 26.2922V26.2989C20.3414 26.2989 20.3548 26.2722 20.3881 26.2189C20.4548 26.1189 20.4881 26.0589 20.4881 26.0589V26.0389C20.7414 25.6056 21.2947 24.6124 22.1273 22.9725C23.2072 20.8527 24.2398 18.2062 24.2398 18.2062C24.3396 18.788 24.4776 19.3625 24.6531 19.9261C24.8397 20.5594 25.233 21.2527 25.5463 21.9259C25.293 22.2726 25.1397 22.4726 25.1397 22.4726C25.1402 22.4777 25.1426 22.4824 25.1464 22.4859C24.9464 22.7525 24.7197 23.0392 24.4864 23.3191C23.6338 24.3324 22.6199 25.4923 22.4866 25.8256C22.3266 26.2189 22.3666 26.5122 22.6732 26.7389C22.8999 26.9122 23.2999 26.9389 23.7192 26.9055C24.4858 26.8522 25.0257 26.6655 25.2857 26.5456C25.765 26.3737 26.218 26.1359 26.6316 25.8389C27.4649 25.2257 27.9715 24.3457 27.9248 23.1858C27.8982 22.5459 27.6915 21.9059 27.4382 21.306C27.5115 21.1993 27.5915 21.086 27.6648 20.9727C28.9841 19.0462 30.004 16.9317 30.004 16.9317C30.1038 17.5134 30.2418 18.088 30.4173 18.6515C30.5773 19.1915 30.8899 19.7848 31.1765 20.3647C29.9373 21.3713 29.1707 22.5379 28.9041 23.3045C28.4108 24.7244 28.7974 25.3643 29.524 25.511C29.8507 25.5776 30.3173 25.4243 30.6639 25.2777C31.1787 25.1062 31.6641 24.8566 32.1031 24.5377C32.9364 23.9244 33.7423 23.0645 33.689 21.8979C33.669 21.3713 33.5224 20.8447 33.329 20.3381C34.3756 19.8981 35.7348 19.6581 37.468 19.8581C41.1797 20.2914 41.9063 22.6112 41.7664 23.5778C41.6264 24.5444 40.8464 25.0843 40.5864 25.2443C40.3265 25.4043 40.2465 25.4643 40.2665 25.5843C40.2998 25.7576 40.4198 25.751 40.6398 25.711C40.9464 25.6576 42.5856 24.9244 42.6589 23.1312C42.7656 20.8647 40.5865 18.3716 36.7261 18.3916L36.7281 18.3929ZM8.11843 28.0388C6.89253 29.3787 5.17267 29.8853 4.4334 29.4586C3.64013 28.9974 3.95344 27.0255 5.46598 25.5976C6.38591 24.731 7.57181 23.9311 8.35841 23.4378C8.5384 23.3311 8.79838 23.1712 9.11835 22.9778C9.17168 22.9445 9.19834 22.9312 9.19834 22.9312C9.25834 22.8912 9.325 22.8579 9.39166 22.8179C9.94428 24.8444 9.41166 26.6309 8.11843 28.0374V28.0388ZM17.075 21.9459C16.6484 22.9925 15.7491 25.659 15.2025 25.519C14.7359 25.399 14.4492 23.3658 15.1092 21.366C15.4425 20.3594 16.1491 19.1595 16.5691 18.6929C17.2417 17.9396 17.9816 17.6996 18.1549 17.9996C18.3883 18.3929 17.3417 21.2926 17.075 21.9459ZM24.4744 25.479C24.2944 25.5723 24.1278 25.6323 24.0478 25.5856C23.9878 25.5523 24.1211 25.4256 24.1211 25.4256C24.1211 25.4256 25.0477 24.4324 25.4144 23.9791C25.6277 23.7125 25.8743 23.3991 26.1403 23.0525C26.1403 23.0858 26.147 23.1192 26.147 23.1592C26.1383 24.3524 24.9924 25.159 24.4724 25.479H24.4744ZM30.1793 24.1791C30.046 24.0858 30.066 23.7724 30.5126 22.7992C30.6859 22.4192 31.0852 21.7793 31.7792 21.166C31.8577 21.3981 31.9004 21.6409 31.9058 21.8859C31.8992 23.3858 30.8259 23.9458 30.18 24.1791H30.1793Z" fill="#A6A6A6"/>
</svg>
